<svg width="40" height="16" viewBox="0 0 40 16" fill="none" xmlns="http://www.w3.org/2000/svg">
<g clip-path="url(#clip0)">
<path d="M13.3915 0.150872C13.2951 0.0563086 13.1655 0.00334167 13.0305 0.00334167C12.8955 0.00334167 12.7659 0.0563086 12.6695 0.150872L8.17132 4.64493L5.80718 2.2788C5.75978 2.23136 5.7035 2.19372 5.64157 2.16805C5.57963 2.14237 5.51325 2.12916 5.44622 2.12916C5.37918 2.12916 5.3128 2.14237 5.25086 2.16805C5.18893 2.19372 5.13265 2.23136 5.08525 2.2788C5.03784 2.32624 5.00024 2.38256 4.97459 2.44455C4.94893 2.50654 4.93573 2.57298 4.93573 2.64007C4.93573 2.70717 4.94893 2.7736 4.97459 2.83559C5.00024 2.89758 5.03784 2.9539 5.08525 3.00134L7.81432 5.72477C7.86023 5.77318 7.91564 5.81157 7.97708 5.83753C8.03851 5.86349 8.10464 5.87646 8.17132 5.87563C8.2392 5.87661 8.30657 5.86374 8.36931 5.8378C8.43205 5.81186 8.48886 5.7734 8.53626 5.72477L13.3915 0.865475C13.439 0.8189 13.4767 0.763307 13.5025 0.701954C13.5282 0.640601 13.5415 0.574723 13.5415 0.508174C13.5415 0.441624 13.5282 0.375743 13.5025 0.314391C13.4767 0.253038 13.439 0.197447 13.3915 0.150872Z" fill="#92CDB8"/>
<path d="M12.7568 5.4945C13.1029 5.49301 13.4466 5.55213 13.7723 5.66918C14.0578 5.77269 14.3254 5.92002 14.5656 6.10589C14.7655 6.25635 14.9419 6.43562 15.0892 6.63787C15.2162 6.81255 15.2796 6.96341 15.2796 7.09045L14.9385 7.25719V6.29645C14.9358 6.19117 14.954 6.08642 14.9922 5.98827C15.0303 5.89012 15.0876 5.80055 15.1606 5.72476C15.2339 5.65008 15.3217 5.59114 15.4186 5.55155C15.5154 5.51196 15.6193 5.49255 15.7239 5.4945C15.8287 5.4911 15.933 5.50985 16.0301 5.54952C16.1271 5.5892 16.2147 5.64891 16.2872 5.72476C16.3617 5.79946 16.42 5.88884 16.4582 5.98726C16.4965 6.08567 16.5139 6.19095 16.5093 6.29645V12.1403C16.5093 12.9026 16.3506 13.5139 16.0174 13.9745C15.6979 14.4316 15.2468 14.7806 14.7243 14.9749C14.1774 15.1841 13.5962 15.2891 13.0107 15.2846C12.7817 15.2792 12.5535 15.2553 12.3284 15.2131C12.0588 15.1739 11.7913 15.1209 11.5271 15.0543C11.3298 15.015 11.1361 14.9592 10.948 14.8876C10.6862 14.7764 10.5037 14.6335 10.4085 14.4588C10.3576 14.3796 10.3254 14.2897 10.3145 14.1962C10.3035 14.1026 10.3139 14.0078 10.3451 13.9189C10.4244 13.6648 10.5513 13.4901 10.7259 13.3948C10.8109 13.3503 10.9044 13.3245 11.0001 13.319C11.0959 13.3135 11.1917 13.3285 11.2812 13.3631C11.3685 13.3869 11.5113 13.4425 11.7096 13.5219C11.927 13.6074 12.1496 13.679 12.376 13.7363C12.5815 13.8011 12.7953 13.8358 13.0107 13.8395C13.6692 13.8395 14.1531 13.7045 14.4625 13.4425C14.7719 13.1805 14.9385 12.8152 14.9385 12.3547V11.2113L15.0972 11.3304C15.0972 11.4416 15.0337 11.5845 14.9147 11.7433C14.7778 11.9252 14.6147 12.0857 14.4308 12.2197C14.2082 12.3891 13.9623 12.5254 13.7009 12.6247C13.4167 12.7306 13.1157 12.7844 12.8124 12.7835C12.2195 12.7923 11.6363 12.6326 11.1305 12.3229C10.6288 12.0098 10.2227 11.5649 9.95634 11.0366C9.6628 10.4888 9.52 9.86152 9.52 9.14692C9.52 8.43231 9.6628 7.79711 9.95634 7.24925C10.2222 6.72315 10.6251 6.27872 11.1225 5.96296C11.6102 5.65104 12.1781 5.48824 12.7568 5.4945ZM13.0107 6.93959C12.649 6.93312 12.2932 7.03166 11.9862 7.2233C11.6793 7.41493 11.4344 7.69146 11.2812 8.01943C11.1142 8.37038 11.0275 8.75421 11.0275 9.14295C11.0275 9.53168 11.1142 9.91552 11.2812 10.2665C11.4385 10.594 11.6851 10.8703 11.9925 11.0638C12.2998 11.2572 12.6555 11.3598 13.0186 11.3598C13.3817 11.3598 13.7374 11.2572 14.0448 11.0638C14.3521 10.8703 14.5987 10.594 14.756 10.2665C14.9183 9.91417 15.0023 9.53087 15.0023 9.14295C15.0023 8.75503 14.9183 8.37172 14.756 8.01943C14.6009 7.69753 14.3591 7.42531 14.0579 7.23337C13.7452 7.03477 13.381 6.9326 13.0107 6.93959Z" fill="#202349"/>
<path d="M22.4038 5.62948C22.5085 5.62706 22.6125 5.64625 22.7094 5.68587C22.8063 5.72549 22.894 5.78468 22.9671 5.85974C23.0413 5.93472 23.0993 6.02416 23.1375 6.1225C23.1757 6.22084 23.1933 6.32599 23.1892 6.43143V9.76624C23.1892 10.6952 22.9353 11.4257 22.4197 11.9736C21.904 12.5214 21.1583 12.7834 20.1904 12.7834C19.2225 12.7834 18.4768 12.5135 17.9611 11.9736C17.4455 11.4336 17.1916 10.6952 17.1916 9.76624V6.43143C17.189 6.32548 17.2081 6.22012 17.2477 6.12182C17.2872 6.02351 17.3464 5.93433 17.4217 5.85974C17.4941 5.78389 17.5817 5.72418 17.6788 5.6845C17.7758 5.64483 17.8802 5.62608 17.9849 5.62948C18.0901 5.62722 18.1945 5.64654 18.2919 5.68625C18.3892 5.72596 18.4774 5.78521 18.551 5.86036C18.6246 5.9355 18.682 6.02494 18.7198 6.12316C18.7575 6.22138 18.7747 6.32629 18.7703 6.43143V9.76624C18.7703 10.3009 18.8893 10.6979 19.1273 10.9572C19.3574 11.2113 19.7144 11.3384 20.1904 11.3384C20.6664 11.3384 21.0234 11.2113 21.2614 10.9572C21.4994 10.7032 21.6184 10.2982 21.6184 9.76624V6.43143C21.6143 6.32599 21.632 6.22084 21.6702 6.1225C21.7084 6.02416 21.7664 5.93472 21.8405 5.85974C21.9136 5.78468 22.0013 5.72549 22.0982 5.68587C22.1951 5.64625 22.2992 5.62706 22.4038 5.62948Z" fill="#202349"/>
<path d="M27.2194 12.7834C26.4736 12.7834 25.831 12.6326 25.2836 12.3229C24.7522 12.0265 24.3151 11.5862 24.0222 11.0525C23.724 10.4966 23.5737 9.87311 23.5859 9.24219C23.5859 8.45613 23.7446 7.78122 24.0619 7.22542C24.3561 6.69337 24.7894 6.25146 25.3154 5.94708C25.812 5.65073 26.3794 5.49435 26.9576 5.4945C27.3933 5.49382 27.8238 5.58867 28.219 5.7724C28.6179 5.95415 28.9786 6.21013 29.282 6.5267C29.5872 6.85103 29.8317 7.22753 30.004 7.6383C30.1861 8.06198 30.2779 8.51898 30.2737 8.98017C30.2729 9.07781 30.2504 9.17406 30.2079 9.26194C30.1654 9.34983 30.1038 9.42716 30.0278 9.48833C29.8734 9.62071 29.6757 9.69139 29.4725 9.68683H24.4665L24.0698 8.37673H28.8854L28.5998 8.63875V8.28145C28.5795 8.03211 28.4856 7.79444 28.33 7.5986C28.1643 7.39963 27.959 7.23739 27.7271 7.1222C27.4879 7.0032 27.2247 6.94072 26.9576 6.93958C26.7074 6.93911 26.4587 6.97659 26.2198 7.05074C25.9974 7.11485 25.7952 7.23516 25.6327 7.4001C25.4495 7.59092 25.3137 7.82208 25.236 8.075C25.1315 8.41964 25.0833 8.77893 25.0932 9.13897C25.0932 9.60743 25.1884 10.0124 25.3868 10.3379C25.5691 10.6506 25.8322 10.9084 26.1484 11.0843C26.451 11.2544 26.793 11.342 27.14 11.3384C27.4011 11.3445 27.662 11.3205 27.9175 11.2669C28.0784 11.2232 28.233 11.1592 28.3776 11.0763C28.4821 11.0062 28.5907 10.9426 28.7029 10.8858C28.8395 10.8115 28.9918 10.7707 29.1472 10.7667C29.2339 10.7646 29.3202 10.7798 29.401 10.8116C29.4818 10.8434 29.5554 10.891 29.6175 10.9517C29.6796 11.0123 29.7289 11.0848 29.7626 11.1649C29.7963 11.2449 29.8136 11.3309 29.8136 11.4178C29.8136 11.656 29.6946 11.8703 29.4487 12.0609C29.2027 12.2515 28.9012 12.4261 28.4887 12.5691C28.0808 12.7121 27.6516 12.7846 27.2194 12.7834Z" fill="#202349"/>
<path d="M30.2658 11.5686C30.1747 11.4273 30.1329 11.2598 30.1468 11.0922C30.1548 10.9016 30.2658 10.7349 30.488 10.592C30.6188 10.5048 30.7758 10.4656 30.9322 10.4808C31.1098 10.5061 31.2727 10.5933 31.3924 10.727C31.6235 10.9677 31.8946 11.1665 32.1936 11.3145C32.4739 11.4575 32.823 11.5289 33.2408 11.5289C33.3876 11.5178 33.5333 11.4965 33.6772 11.4654C33.83 11.4327 33.9719 11.3617 34.0897 11.259C34.2087 11.1478 34.2642 10.9811 34.2642 10.7508C34.2683 10.664 34.2526 10.5774 34.2182 10.4976C34.1838 10.4178 34.1318 10.3469 34.0659 10.2903C33.9124 10.1649 33.7378 10.0681 33.5502 10.0044C33.3168 9.91636 33.0784 9.84212 32.8362 9.78211L32.0032 9.52009C31.727 9.42538 31.4632 9.2974 31.2178 9.13896C30.9815 8.98699 30.7855 8.77993 30.6466 8.53552C30.4854 8.24164 30.406 7.90986 30.4166 7.57478C30.4073 7.16961 30.5391 6.77383 30.7894 6.45524C31.0444 6.14553 31.3713 5.90293 31.7414 5.74857C32.1269 5.58085 32.5428 5.49436 32.9632 5.49449C33.2515 5.49934 33.5387 5.53393 33.82 5.59771C34.1171 5.66074 34.4032 5.76779 34.6688 5.91531C34.935 6.05414 35.1678 6.2492 35.3511 6.487C35.4521 6.62365 35.5126 6.786 35.5256 6.95546C35.5415 7.13808 35.4622 7.30482 35.2718 7.45568C35.2081 7.50808 35.1346 7.54705 35.0555 7.57024C34.9764 7.59344 34.8935 7.60038 34.8116 7.59066C34.6524 7.5862 34.5002 7.52414 34.3832 7.41598C34.2249 7.21674 34.0207 7.05874 33.7882 6.95546C33.5148 6.84009 33.2202 6.78329 32.9235 6.78872C32.7825 6.79122 32.642 6.80449 32.503 6.82842C32.3521 6.85491 32.2118 6.92375 32.0984 7.02692C31.9874 7.13014 31.9318 7.28894 31.9318 7.51126C31.9277 7.59967 31.9426 7.68794 31.9754 7.77012C32.0083 7.8523 32.0583 7.92648 32.1222 7.98766C32.2777 8.11876 32.4587 8.21609 32.6538 8.2735C32.8838 8.3529 33.1218 8.42436 33.3757 8.49582C33.6441 8.56445 33.9089 8.6466 34.169 8.74196C34.4367 8.83347 34.6903 8.96173 34.9227 9.12309C35.1505 9.28114 35.338 9.49057 35.4701 9.73447C35.6129 9.97796 35.6843 10.2956 35.6843 10.6873C35.6931 11.1036 35.5524 11.5094 35.2876 11.8306C35.0217 12.1444 34.6843 12.3895 34.3039 12.5452C33.9211 12.7018 33.5116 12.7826 33.098 12.7834C32.5707 12.7827 32.0475 12.6914 31.551 12.5135C31.0358 12.3381 30.5871 12.0082 30.2658 11.5686Z" fill="#202349"/>
<path d="M36.1524 5.76446H39.2622C39.3592 5.75963 39.456 5.77554 39.5463 5.81114C39.6366 5.84674 39.7183 5.90121 39.7858 5.97091C39.8553 6.03904 39.9102 6.12067 39.947 6.21079C39.9838 6.3009 40.0019 6.3976 40 6.49495C40.0026 6.59004 39.9848 6.68458 39.9479 6.77223C39.9109 6.85987 39.8557 6.93859 39.7858 7.00311C39.7167 7.07018 39.6346 7.12239 39.5445 7.15653C39.4545 7.19066 39.3584 7.206 39.2622 7.20161H36.1524C36.0556 7.20493 35.9592 7.18831 35.8692 7.15278C35.7791 7.11724 35.6973 7.06356 35.6289 6.99505C35.5604 6.92654 35.5068 6.84468 35.4713 6.75455C35.4358 6.66443 35.4192 6.56795 35.4225 6.47113C35.4189 6.37663 35.4355 6.28245 35.471 6.19484C35.5066 6.10723 35.5603 6.02819 35.6288 5.96297C35.6987 5.89701 35.7809 5.84553 35.8708 5.81147C35.9606 5.7774 36.0563 5.76143 36.1524 5.76446ZM37.5566 4.12088C37.6604 4.116 37.7639 4.13411 37.8599 4.17391C37.9559 4.21371 38.042 4.27423 38.1119 4.35114C38.1861 4.42612 38.2441 4.51555 38.2823 4.61389C38.3205 4.71224 38.3381 4.81739 38.334 4.92282V10.7667C38.3304 10.8718 38.3551 10.976 38.4054 11.0684C38.4495 11.1459 38.5199 11.2051 38.6038 11.2351C38.688 11.2748 38.7805 11.2939 38.8735 11.2907C38.9722 11.2905 39.0696 11.2688 39.1591 11.2272C39.2545 11.1875 39.3573 11.1686 39.4606 11.1716C39.5248 11.1741 39.5877 11.1903 39.6451 11.2191C39.7026 11.2478 39.7533 11.2885 39.7938 11.3384C39.901 11.4731 39.9547 11.6428 39.9445 11.8148C39.9445 12.0609 39.8096 12.2594 39.5478 12.4182C39.2866 12.5749 38.9876 12.6572 38.6831 12.6564C38.4786 12.6545 38.2745 12.6386 38.0722 12.6088C37.8504 12.578 37.6372 12.5024 37.4455 12.3864C37.2353 12.2514 37.0654 12.0622 36.9536 11.8386C36.8188 11.5924 36.7553 11.259 36.7553 10.8302V4.92282C36.7527 4.81688 36.7718 4.71152 36.8114 4.61321C36.8509 4.51491 36.9101 4.42573 36.9854 4.35114C37.0587 4.27427 37.1476 4.21396 37.2461 4.17425C37.3446 4.13454 37.4505 4.11634 37.5566 4.12088Z" fill="#202349"/>
<path d="M3.64142 12.704C2.89568 12.704 2.24515 12.5452 1.70568 12.2356C1.17428 11.9392 0.737104 11.4989 0.444277 10.9652C0.143589 10.407 -0.00935279 9.78101 8.58254e-06 9.14691C8.58254e-06 8.36084 0.158676 7.68594 0.483943 7.13014C0.778125 6.59808 1.21143 6.15618 1.73741 5.85179C2.23465 5.55786 2.80214 5.40421 3.37962 5.40715C3.81473 5.40399 4.24526 5.49613 4.64102 5.67712C5.03993 5.85887 5.40069 6.11485 5.70409 6.43142C6.00896 6.75757 6.25582 7.13353 6.43396 7.54302C6.6114 7.96813 6.70307 8.42417 6.7037 8.88489C6.70145 8.98422 6.67756 9.08186 6.63372 9.171C6.58987 9.26014 6.52711 9.33863 6.44983 9.40099C6.29611 9.52908 6.10245 9.5993 5.90243 9.59949H0.880611L0.483943 8.28144H5.30743L5.02182 8.54346V8.1941C5.00027 7.94265 4.90661 7.70277 4.75209 7.50332C4.58633 7.30435 4.381 7.14211 4.14916 7.02692C3.90942 6.91039 3.64612 6.85062 3.37962 6.85224C3.12989 6.8492 2.88114 6.884 2.64182 6.95546C2.41715 7.02379 2.21278 7.14651 2.04682 7.31276C1.86804 7.50245 1.73506 7.73061 1.65808 7.97972C1.55352 8.32436 1.5053 8.68365 1.51528 9.04369C1.51528 9.52009 1.61048 9.91709 1.80881 10.2506C1.99114 10.5633 2.25421 10.8211 2.57042 10.9969C2.87306 11.167 3.21501 11.2546 3.56209 11.251C3.82361 11.2591 4.08505 11.2324 4.33956 11.1716C4.50271 11.1349 4.65835 11.0705 4.79969 10.9811L5.12496 10.7905C5.26373 10.723 5.41503 10.6851 5.56923 10.6793C5.65854 10.677 5.7474 10.6927 5.83053 10.7254C5.91367 10.7582 5.98938 10.8073 6.05316 10.8699C6.11356 10.9304 6.16146 11.0022 6.19413 11.0812C6.2268 11.1602 6.2436 11.2449 6.24356 11.3304C6.24356 11.5686 6.11663 11.783 5.87069 11.9815C5.62476 12.18 5.32329 12.3388 4.91076 12.4817C4.5033 12.6273 4.07407 12.7025 3.64142 12.704Z" fill="#92CDB8"/>
</g>
<defs>
<clipPath id="clip0">
<rect width="40" height="15.2846" fill="white"/>
</clipPath>
</defs>
</svg>
