<svg width="40" height="7" viewBox="0 0 40 7" fill="none" xmlns="http://www.w3.org/2000/svg">
<path d="M3.39726 0.0248169C3.61296 0.00827229 3.78303 0.053769 3.90748 0.161307C4.03192 0.268845 4.09414 0.430153 4.09414 0.645229C4.09414 0.868577 4.04021 1.03402 3.93236 1.14156C3.82451 1.2491 3.62956 1.31941 3.34749 1.3525L2.97416 1.38972C2.48469 1.43935 2.12381 1.6048 1.89152 1.88605C1.66752 2.1673 1.55552 2.51887 1.55552 2.94075V5.54648C1.55552 5.78637 1.48086 5.9725 1.33153 6.10485C1.1822 6.22893 0.995535 6.29097 0.771539 6.29097C0.547544 6.29097 0.360882 6.22893 0.211551 6.10485C0.0705173 5.9725 0 5.78637 0 5.54648V0.744495C0 0.512874 0.0705173 0.335023 0.211551 0.21094C0.360882 0.086858 0.543396 0.0248169 0.759095 0.0248169C0.974795 0.0248169 1.14901 0.086858 1.28175 0.21094C1.41449 0.32675 1.48086 0.496329 1.48086 0.719678V1.21601C1.63849 0.852032 1.87078 0.570779 2.17773 0.372247C2.49299 0.173715 2.84142 0.0620413 3.22305 0.0372249L3.39726 0.0248169Z" fill="black"/>
<path d="M9.45817 4.55382C9.5992 4.55382 9.7112 4.60759 9.79416 4.71513C9.88542 4.82267 9.93105 4.96743 9.93105 5.14942C9.93105 5.40585 9.77757 5.62093 9.47061 5.79464C9.18854 5.95182 8.86914 6.08003 8.51241 6.1793C8.15568 6.27029 7.81553 6.31579 7.49199 6.31579C6.51304 6.31579 5.73735 6.03454 5.16492 5.47203C4.59249 4.90952 4.30627 4.14021 4.30627 3.1641C4.30627 2.54369 4.43072 1.99359 4.6796 1.5138C4.92848 1.03402 5.27692 0.661773 5.72491 0.397064C6.1812 0.132355 6.69556 0 7.26799 0C7.81553 0 8.29256 0.119947 8.69907 0.359839C9.10558 0.599732 9.42083 0.93889 9.64483 1.37731C9.86883 1.81574 9.98082 2.33275 9.98082 2.92834C9.98082 3.28405 9.8232 3.4619 9.50795 3.4619H5.83691C5.88668 4.03268 6.04846 4.45456 6.32223 4.72754C6.596 4.99225 6.99422 5.1246 7.51687 5.1246C7.78235 5.1246 8.01464 5.09151 8.21375 5.02533C8.42115 4.95916 8.65344 4.86816 8.91062 4.75235C9.15951 4.62 9.34202 4.55382 9.45817 4.55382ZM7.30532 1.09192C6.88222 1.09192 6.54208 1.22428 6.2849 1.48899C6.03602 1.7537 5.88668 2.13422 5.83691 2.63054H8.6493C8.6327 2.12594 8.50826 1.74542 8.27597 1.48899C8.04368 1.22428 7.72013 1.09192 7.30532 1.09192Z" fill="black"/>
<path d="M13.9536 6.31579C13.348 6.31579 12.8129 6.18757 12.3483 5.93113C11.892 5.6747 11.5395 5.31072 11.2906 4.83921C11.0417 4.3677 10.9172 3.8176 10.9172 3.18892C10.9172 2.56023 11.0458 2.006 11.303 1.52621C11.5685 1.03816 11.9377 0.661773 12.4106 0.397064C12.8834 0.132355 13.4268 0 14.0407 0C14.3643 0 14.6878 0.045497 15.0114 0.136491C15.3432 0.227484 15.6336 0.351566 15.8825 0.508738C16.148 0.682453 16.2807 0.901665 16.2807 1.16637C16.2807 1.34836 16.2351 1.49726 16.1438 1.61307C16.0608 1.72061 15.9488 1.77438 15.8078 1.77438C15.7166 1.77438 15.6212 1.7537 15.5216 1.71234C15.422 1.67097 15.3225 1.62134 15.2229 1.56344C15.0404 1.4559 14.8662 1.37318 14.7003 1.31527C14.5344 1.2491 14.3435 1.21601 14.1278 1.21601C13.6135 1.21601 13.2153 1.38559 12.9332 1.72474C12.6594 2.05563 12.5225 2.53542 12.5225 3.1641C12.5225 3.78451 12.6594 4.2643 12.9332 4.60345C13.2153 4.93434 13.6135 5.09978 14.1278 5.09978C14.3353 5.09978 14.5178 5.07083 14.6754 5.01293C14.8413 4.94675 15.0238 4.85989 15.2229 4.75235C15.3474 4.6779 15.4552 4.62413 15.5465 4.59104C15.6377 4.54968 15.729 4.529 15.8203 4.529C15.953 4.529 16.065 4.58691 16.1563 4.70272C16.2475 4.81853 16.2931 4.96329 16.2931 5.13701C16.2931 5.27763 16.26 5.40172 16.1936 5.50925C16.1355 5.60852 16.036 5.69951 15.8949 5.78224C15.6377 5.94768 15.3391 6.08003 14.9989 6.1793C14.6588 6.27029 14.3104 6.31579 13.9536 6.31579Z" fill="black"/>
<path d="M27.0854 0.471513C27.1517 0.322614 27.2388 0.21094 27.3467 0.136491C27.4628 0.0620416 27.5873 0.0248169 27.72 0.0248169C27.9108 0.0248169 28.0809 0.0909937 28.2302 0.223348C28.3879 0.34743 28.4667 0.504601 28.4667 0.694861C28.4667 0.794127 28.4418 0.893393 28.392 0.992659L26.0898 5.79464C26.0152 5.95182 25.9073 6.07176 25.7663 6.15448C25.6335 6.2372 25.4842 6.27856 25.3183 6.27856C25.1607 6.27856 25.0072 6.2372 24.8578 6.15448C24.7168 6.07176 24.609 5.95182 24.5343 5.79464L22.2197 0.992659C22.1782 0.909937 22.1575 0.814808 22.1575 0.70727C22.1575 0.51701 22.2363 0.355703 22.3939 0.223348C22.5598 0.0909937 22.7465 0.0248169 22.9539 0.0248169C23.2525 0.0248169 23.4724 0.16958 23.6134 0.459105L25.3556 4.29325L27.0854 0.471513Z" fill="black"/>
<path d="M34.1108 4.55382C34.2518 4.55382 34.3638 4.60759 34.4468 4.71513C34.538 4.82267 34.5837 4.96743 34.5837 5.14942C34.5837 5.40585 34.4302 5.62093 34.1232 5.79464C33.8412 5.95182 33.5218 6.08003 33.165 6.1793C32.8083 6.27029 32.4682 6.31579 32.1446 6.31579C31.1657 6.31579 30.39 6.03454 29.8175 5.47203C29.2451 4.90952 28.9589 4.14021 28.9589 3.1641C28.9589 2.54369 29.0833 1.99359 29.3322 1.5138C29.5811 1.03402 29.9295 0.661773 30.3775 0.397064C30.8338 0.132355 31.3482 0 31.9206 0C32.4682 0 32.9452 0.119947 33.3517 0.359839C33.7582 0.599732 34.0735 0.93889 34.2975 1.37731C34.5214 1.81574 34.6334 2.33275 34.6334 2.92834C34.6334 3.28405 34.4758 3.4619 34.1606 3.4619H30.4895C30.5393 4.03268 30.7011 4.45456 30.9749 4.72754C31.2486 4.99225 31.6468 5.1246 32.1695 5.1246C32.435 5.1246 32.6673 5.09151 32.8664 5.02533C33.0738 4.95916 33.3061 4.86816 33.5632 4.75235C33.8121 4.62 33.9946 4.55382 34.1108 4.55382ZM31.9579 1.09192C31.5348 1.09192 31.1947 1.22428 30.9375 1.48899C30.6886 1.7537 30.5393 2.13422 30.4895 2.63054H33.3019C33.2853 2.12594 33.1609 1.74542 32.9286 1.48899C32.6963 1.22428 32.3727 1.09192 31.9579 1.09192Z" fill="black"/>
<path d="M39.3031 0.0248169C39.5188 0.00827229 39.6889 0.053769 39.8133 0.161307C39.9378 0.268845 40 0.430153 40 0.645229C40 0.868577 39.9461 1.03402 39.8382 1.14156C39.7304 1.2491 39.5354 1.31941 39.2533 1.3525L38.88 1.38972C38.3906 1.43935 38.0297 1.6048 37.7974 1.88605C37.5734 2.1673 37.4614 2.51887 37.4614 2.94075V5.54648C37.4614 5.78637 37.3867 5.9725 37.2374 6.10485C37.0881 6.22893 36.9014 6.29097 36.6774 6.29097C36.4534 6.29097 36.2667 6.22893 36.1174 6.10485C35.9764 5.9725 35.9059 5.78637 35.9059 5.54648V0.744495C35.9059 0.512874 35.9764 0.335023 36.1174 0.21094C36.2667 0.086858 36.4493 0.0248169 36.665 0.0248169C36.8807 0.0248169 37.0549 0.086858 37.1876 0.21094C37.3204 0.32675 37.3867 0.496329 37.3867 0.719678V1.21601C37.5443 0.852032 37.7766 0.570779 38.0836 0.372247C38.3988 0.173715 38.7473 0.0620413 39.1289 0.0372249L39.3031 0.0248169Z" fill="black"/>
<path d="M18.6906 6.31579C18.0577 6.31579 17.5008 6.18757 17.0199 5.93113C16.5474 5.6747 16.1803 5.30659 15.9187 4.8268C15.6572 4.34702 15.5264 3.78865 15.5264 3.15169C15.5264 2.51474 15.6572 1.9605 15.9187 1.48899C16.1803 1.0092 16.5474 0.641092 17.0199 0.384655C17.5008 0.128218 18.0577 0 18.6906 0C19.3234 0 19.8761 0.128218 20.3486 0.384655C20.8296 0.641092 21.1967 1.0092 21.4498 1.48899C21.7114 1.9605 21.8422 2.51474 21.8422 3.15169C21.8422 3.78865 21.7114 4.34702 21.4498 4.8268C21.1967 5.30659 20.8296 5.6747 20.3486 5.93113C19.8761 6.18757 19.3234 6.31579 18.6906 6.31579ZM18.6779 5.11219C19.1926 5.11219 19.585 4.94675 19.855 4.61586C20.125 4.28498 20.26 3.79692 20.26 3.15169C20.26 2.51474 20.125 2.03081 19.855 1.69993C19.585 1.36077 19.1969 1.19119 18.6906 1.19119C18.1843 1.19119 17.792 1.36077 17.5135 1.69993C17.2435 2.03081 17.1085 2.51474 17.1085 3.15169C17.1085 3.79692 17.2435 4.28498 17.5135 4.61586C17.7835 4.94675 18.1717 5.11219 18.6779 5.11219Z" fill="#EA28EE"/>
</svg>
